<svg
      xmlns="http://www.w3.org/2000/svg"
      width="20"
      height="20"
      version="1.1"
      viewBox="0 0 5.292 5.292"
    >
      <g>
        <g
          fillOpacity="1"
          stroke="none"
          strokeLinecap="round"
          strokeLinejoin="round"
          paintOrder="stroke markers fill"
        >
          <path
            fill="#000"
            strokeWidth="0.794"
            d="M2.048.102L1.91.454 1.575.283l.153.345-.36.117.353.136-.172.337.346-.153.116.36.137-.353.336.171L2.376 1l.262.123c.091.043.184.048.27.03a1.11 1.11 0 00.25-.094c.165-.077.33-.164.523-.16.117.002.25.045.352.146.103.102.18.261.18.512 0 .237-.15.42-.307.545a1.223 1.223 0 01-.252.158 1.225 1.225 0 00-.434-.246l-.126.147a1.57 1.57 0 00-.786-.097A1.57 1.57 0 00.96 3.828a1.57 1.57 0 001.764 1.348 1.57 1.57 0 001.349-1.765 1.57 1.57 0 00-.184-.553l.134-.155a1.162 1.162 0 00-.265-.347c.065-.034.148-.084.232-.151.174-.14.356-.357.356-.649 0-.278-.09-.477-.22-.605a.65.65 0 00-.443-.186C3.45.761 3.262.863 3.101.94c-.08.038-.154.069-.22.082a.275.275 0 01-.186-.017L2.415.87l.276-.09-.352-.136.171-.336-.346.152z"
          ></path>
          <path
            fill="#ccc"
            strokeDasharray="none"
            strokeMiterlimit="4"
            strokeWidth="0.132"
            d="M2.549 2.356a1.261 1.235 0 00-1.262 1.235 1.261 1.235 0 00.076.422 1.484 1.454 0 01-.01-.17 1.484 1.454 0 011.48-1.455 1.261 1.235 0 00-.284-.032z"
          ></path>
        </g>
      </g>
    </svg>