<svg
      xmlns="http://www.w3.org/2000/svg"
      width="35"
      height="40"
      version="1.1"
      viewBox="0 0 21.596 23.604"
    >
      <g transform="translate(-92.169 -135.486)">
        <path
          fill="#000"
          strokeWidth="1"
          d="M103.14 137.911c-.359-.013-.72.088-1.014.32-.792.623-.81.785-.81 7.2v5.913l-.873-.832c-.764-.728-.945-.831-1.464-.831-.78 0-1.316.258-1.574.757-.257.498-.262 1.262-.01 1.716.104.187 1.227 1.423 2.496 2.748 2.356 2.457 3.67 3.506 4.955 3.951.44.153 1.215.232 2.312.236 2.159.01 3.007-.285 4.173-1.452 1.382-1.382 1.46-1.73 1.46-6.579v-4.055l-.518-.518c-.493-.493-.559-.515-1.333-.45-.775.064-.825.047-1.03-.349-.344-.666-.839-.908-1.69-.826-.695.067-.753.046-.956-.347-.306-.592-1-.913-1.78-.825l-.638.072v-2.203c0-1.735-.051-2.312-.24-2.71-.274-.576-.867-.914-1.466-.936zm-.086.755c.197-.003.403.086.624.265l.343.277.049 4.467c.026 2.457.108 4.527.181 4.6.08.08.225.058.36-.055.178-.147.228-.518.228-1.715 0-1.33.037-1.564.294-1.82.41-.41.947-.373 1.313.093.275.35.305.587.305 2.419 0 2.05.09 2.401.521 2.043.162-.134.214-.538.214-1.631 0-1.257.04-1.493.295-1.748.41-.41.947-.372 1.313.094.274.348.305.588.305 2.338 0 1.966.062 2.193.552 2.022.13-.046.184-.489.184-1.524 0-1.262.04-1.498.294-1.753.162-.161.46-.294.662-.294.203 0 .5.133.662.294.279.279.294.49.294 3.946 0 4.085-.099 4.704-.93 5.793-.297.39-.808.798-1.343 1.072-.777.397-1.018.444-2.42.477-2.124.05-2.591-.114-4.488-1.572-1.072-.823-4.775-4.811-4.89-5.266-.13-.512.307-1.066.842-1.066.364 0 .713.259 1.91 1.42l1.462 1.42v-7.01c0-6.815.01-7.02.295-7.306.184-.184.372-.277.569-.28z"
        ></path>
        <path
          fill="#969696"
          fillOpacity="1"
          strokeWidth="1"
          d="M109.774 157.849c.535-.274 1.046-.682 1.344-1.072.83-1.088.93-1.708.93-5.793 0-3.455-.016-3.667-.295-3.946-.162-.161-.46-.294-.662-.294s-.5.133-.662.294c-.255.255-.294.49-.294 1.754 0 1.034-.054 1.477-.184 1.523-.49.17-.552-.056-.552-2.022 0-1.75-.03-1.99-.305-2.338-.366-.466-.902-.504-1.313-.094-.255.255-.294.49-.294 1.748 0 1.093-.054 1.497-.215 1.63-.431.36-.52.008-.52-2.042 0-1.832-.03-2.07-.306-2.42-.366-.465-.903-.503-1.313-.093-.257.257-.294.49-.294 1.821 0 1.197-.05 1.568-.227 1.716-.136.112-.28.134-.36.054-.074-.073-.155-2.143-.182-4.6l-.049-4.467-.343-.278c-.442-.357-.825-.352-1.193.017-.286.286-.295.49-.295 7.304v7.011l-1.463-1.42c-1.196-1.16-1.545-1.42-1.91-1.42-.534 0-.971.554-.841 1.066.115.455 3.818 4.443 4.89 5.266 1.897 1.458 2.364 1.622 4.487 1.572 1.403-.032 1.644-.08 2.421-.477z"
        ></path>
        <path
          fill="#000"
          fillOpacity="1"
          fillRule="nonzero"
          stroke="none"
          strokeDasharray="none"
          strokeDashoffset="0"
          strokeLinecap="round"
          strokeLinejoin="miter"
          strokeMiterlimit="4"
          strokeOpacity="1"
          d="M99.291 138.572a.397.397 0 00-.396.398v1.334a.397.397 0 00.396.397.397.397 0 00.397-.397v-1.334a.397.397 0 00-.397-.398zm7.525 0a.397.397 0 00-.396.398v1.334a.397.397 0 00.396.397.397.397 0 00.397-.397v-1.334a.397.397 0 00-.397-.398zm-3.763-3.086a4.242 4.242 0 00-4.166 3.484h.807a3.435 3.435 0 013.359-2.689 3.438 3.438 0 013.36 2.689h.807a4.244 4.244 0 00-4.167-3.484z"
          baselineShift="baseline"
          clipRule="nonzero"
          color="#000"
          colorInterpolation="sRGB"
          colorInterpolationFilters="linearRGB"
          colorRendering="auto"
          direction="ltr"
          display="inline"
          dominantBaseline="auto"
          enableBackground="accumulate"
          fontFamily="sans-serif"
          fontSize="medium"
          fontStretch="normal"
          fontStyle="normal"
          fontVariant="normal"
          fontWeight="normal"
          imageRendering="auto"
          letterSpacing="normal"
          opacity="1"
          overflow="visible"
          shapeRendering="auto"
          stopColor="#000"
          stopOpacity="1"
          textAnchor="start"
          textDecoration="none"
          textRendering="auto"
          vectorEffect="none"
          visibility="visible"
          wordSpacing="normal"
          writingMode="lr-tb"
        ></path>
        <path    
          fill="#000"
          fillOpacity="1"
          fillRule="nonzero"
          stroke="none"
          strokeDasharray="none"
          strokeDashoffset="0"
          strokeLinecap="butt"
          strokeLinejoin="miter"
          strokeMiterlimit="4"
          strokeOpacity="1"
          strokeWidth="1"
          d="M107.564 137.885v.398h4.762l-1.998 1.193.203.342 3.234-1.734zm2.967-1.535l-.203.342 1.998 1.193h-4.762v.398l6.201-.199z"
          baselineShift="baseline"
          clipRule="nonzero"
          color="#000"
          colorInterpolation="sRGB"
          colorInterpolationFilters="linearRGB"
          colorRendering="auto"
          direction="ltr"
          display="inline"
          dominantBaseline="auto"
          enableBackground="accumulate"
          fontFamily="sans-serif"
          fontSize="medium"
          fontStretch="normal"
          fontStyle="normal"
          fontVariant="normal"
          fontWeight="normal"
          imageRendering="auto"
          letterSpacing="normal"
          opacity="1"
          overflow="visible"
          shapeRendering="auto"
          stopColor="#000"
          stopOpacity="1"
          textAnchor="start"
          textDecoration="none"
          textRendering="auto"
          vectorEffect="none"
          visibility="visible"
          wordSpacing="normal"
          writingMode="lr-tb"
        ></path>
        <path
          fill="#000"
          fillOpacity="1"
          fillRule="nonzero"
          stroke="none"
          strokeDasharray="none"
          strokeDashoffset="0"
          strokeLinecap="butt"
          strokeLinejoin="miter"
          strokeMiterlimit="4"
          strokeOpacity="1"
          strokeWidth="1"
          d="M98.717 137.874v.42h-5.03l2.11 1.26-.213.361-3.415-1.831zm-3.133-1.621l.214.361-2.11 1.26h5.029v.42l-6.548-.21z"
          baselineShift="baseline"
          clipRule="nonzero"
          color="#000"
          colorInterpolation="sRGB"
          colorInterpolationFilters="linearRGB"
          colorRendering="auto"
          direction="ltr"
          display="inline"
          dominantBaseline="auto"
          enableBackground="accumulate"
          fontFamily="sans-serif"
          fontSize="medium"
          fontStretch="normal"
          fontStyle="normal"
          fontVariant="normal"
          fontWeight="normal"
          imageRendering="auto"
          letterSpacing="normal"
          opacity="1"
          overflow="visible"
          shapeRendering="auto"
          stopColor="#000"
          stopOpacity="1"
          textAnchor="start"
          textDecoration="none"
          textRendering="auto"
          vectorEffect="none"
          visibility="visible"
          wordSpacing="normal"
          writingMode="lr-tb"
        ></path>
      </g>
    </svg>