<svg
      xmlns="http://www.w3.org/2000/svg"
      width="55"
      height="32"
      version="1.1"
      viewBox="0 0 19.71 11.36"
    >
      <g
        fillOpacity="1"
        stroke="none"
        strokeDasharray="none"
        strokeMiterlimit="4"
        transform="translate(3.411 2.353)"
      >
        <path
          fill="#969696"
          strokeLinecap="square"
          strokeLinejoin="round"
          strokeWidth="1"
          d="M7.94 2.648h6.359v3.18h-6.36zm0 3.18a3.18 3.18 0 003.18 3.18 3.18 3.18 0 003.179-3.18z"
          paintOrder="stroke markers fill"
        ></path>
        <path
          fill="#969696"
          strokeLinecap="square"
          strokeLinejoin="round"
          strokeWidth="1"
          d="M-1.599 2.648h6.36v3.18H-1.6zm0 3.18a3.18 3.18 0 003.18 3.18 3.18 3.18 0 003.18-3.18z"
          paintOrder="stroke markers fill"
        ></path>
        <path
          fill="#969696"
          strokeLinecap="square"
          strokeLinejoin="round"
          strokeWidth="1"
          d="M3.33-.531c.792 0 1.43.61 1.43 1.369v1.369H1.898V-.531z"
          paintOrder="stroke markers fill"
        ></path>
        <path
          fill="#969696"
          strokeLinecap="square"
          strokeLinejoin="round"
          strokeWidth="1"
          d="M9.37-.531c-.792 0-1.43.61-1.43 1.369v1.369h2.862V-.531z"
          paintOrder="stroke markers fill"
        ></path>
        <path
          fill="#464646"
          fillRule="nonzero"
          strokeDashoffset="0"
          strokeLinecap="square"
          strokeLinejoin="round"
          strokeOpacity="1"
          strokeWidth="1"
          d="M-.168-.531c-.793 0-1.43.61-1.43 1.369v1.369h2.861V-.531z"
          baselineShift="baseline"
          clipRule="nonzero"
          color="#000"
          colorInterpolation="sRGB"
          colorInterpolationFilters="linearRGB"
          colorRendering="auto"
          direction="ltr"
          display="inline"
          dominantBaseline="auto"
          enableBackground="accumulate"
          fontFamily="sans-serif"
          fontSize="medium"
          fontStretch="normal"
          fontStyle="normal"
          fontVariant="normal"
          fontWeight="normal"
          imageRendering="auto"
          letterSpacing="normal"
          overflow="visible"
          paintOrder="stroke markers fill"
          shapeRendering="auto"
          stopColor="#000"
          textAnchor="start"
          textDecoration="none"
          textRendering="auto"
          vectorEffect="none"
          visibility="visible"
          wordSpacing="normal"
          writingMode="lr-tb"
        ></path>
        <path
          fill="#464646"
          fillRule="nonzero"
          strokeDashoffset="0"
          strokeLinecap="square"
          strokeLinejoin="round"
          strokeOpacity="1"
          strokeWidth="1"
          d="M12.868-.531c.793 0 1.43.61 1.43 1.369v1.369h-2.861V-.531z"
          baselineShift="baseline"
          clipRule="nonzero"
          color="#000"
          colorInterpolation="sRGB"
          colorInterpolationFilters="linearRGB"
          colorRendering="auto"
          direction="ltr"
          display="inline"
          dominantBaseline="auto"
          enableBackground="accumulate"
          fontFamily="sans-serif"
          fontSize="medium"
          fontStretch="normal"
          fontStyle="normal"
          fontVariant="normal"
          fontWeight="normal"
          imageRendering="auto"
          letterSpacing="normal"
          overflow="visible"
          paintOrder="stroke markers fill"
          shapeRendering="auto"
          stopColor="#000"
          textAnchor="start"
          textDecoration="none"
          textRendering="auto"
          vectorEffect="none"
          visibility="visible"
          wordSpacing="normal"
          writingMode="lr-tb"
        ></path>
        <path
          fill="#969696"
          fillRule="nonzero"
          strokeDashoffset="0"
          strokeLinecap="butt"
          strokeLinejoin="miter"
          strokeOpacity="1"
          strokeWidth="3.78"
          d="M11.21-2.06a12.893 12.893 0 00-.228.003v4.893a8 8 0 01.25-.004 8 8 0 01.252.004v-4.893a12.893 12.893 0 00-.252-.004 12.893 12.893 0 00-.021 0zm-3.071.376a12.893 12.893 0 00-.487.13L8.92 3.173a8 8 0 01.486-.13zM5.006-.457a12.893 12.893 0 00-.434.25L7.02 4.031a8 8 0 01.431-.25zM2.295 1.541a12.893 12.893 0 00-.356.354L5.4 5.355a8 8 0 01.356-.353zm-2.1 2.63a12.893 12.893 0 00-.252.436l4.239 2.446a8 8 0 01.25-.434zm-1.347 3.081a12.893 12.893 0 00-.131.486l4.726 1.268a8 8 0 01.131-.486zm-.504 3.33a12.893 12.893 0 00-.004.25 12.893 12.893 0 00.004.252h4.892a8 8 0 01-.004-.252 8 8 0 01.004-.25z"
          baselineShift="baseline"
          clipRule="nonzero"
          color="#000"
          colorInterpolation="sRGB"
          colorInterpolationFilters="linearRGB"
          colorRendering="auto"
          direction="ltr"
          display="inline"
          dominantBaseline="auto"
          enableBackground="accumulate"
          fontFamily="sans-serif"
          fontSize="medium"
          fontStretch="normal"
          fontStyle="normal"
          fontVariant="normal"
          fontWeight="normal"
          imageRendering="auto"
          letterSpacing="normal"
          opacity="1"
          overflow="visible"
          shapeRendering="auto"
          stopColor="#000"
          stopOpacity="1"
          textAnchor="start"
          textDecoration="none"
          textRendering="auto"
          transform="matrix(.26458 0 0 .26458 -2.972 -1.808)"
          vectorEffect="none"
          visibility="visible"
          wordSpacing="normal"
          writingMode="lr-tb"
        ></path>
        <path
          fill="#969696"
          fillRule="nonzero"
          strokeDashoffset="0"
          strokeLinecap="butt"
          strokeLinejoin="miter"
          strokeOpacity="1"
          strokeWidth="1"
          d="M12.894-2.353a3.411 3.411 0 01.06.001v1.295a2.117 2.117 0 00-.066-.001 2.117 2.117 0 00-.067 0v-1.294a3.411 3.411 0 01.067 0 3.411 3.411 0 01.006 0zm.813.1a3.411 3.411 0 01.128.034L13.5-.968a2.117 2.117 0 00-.129-.034zm.829.324a3.411 3.411 0 01.114.067l-.647 1.121a2.117 2.117 0 00-.114-.066zm.717.53a3.411 3.411 0 01.094.093l-.916.915a2.117 2.117 0 00-.094-.093zm.555.695a3.411 3.411 0 01.067.115l-1.121.647a2.117 2.117 0 00-.067-.114zm.357.815A3.411 3.411 0 0116.2.24l-1.251.335a2.117 2.117 0 00-.035-.128zm.133.881a3.411 3.411 0 01.001.066 3.411 3.411 0 010 .067h-1.295a2.117 2.117 0 000-.067 2.117 2.117 0 000-.066z"
          baselineShift="baseline"
          clipRule="nonzero"
          color="#000"
          colorInterpolation="sRGB"
          colorInterpolationFilters="linearRGB"
          colorRendering="auto"
          direction="ltr"
          display="inline"
          dominantBaseline="auto"
          enableBackground="accumulate"
          fontFamily="sans-serif"
          fontSize="medium"
          fontStretch="normal"
          fontStyle="normal"
          fontVariant="normal"
          fontWeight="normal"
          imageRendering="auto"
          letterSpacing="normal"
          opacity="1"
          overflow="visible"
          shapeRendering="auto"
          stopColor="#000"
          stopOpacity="1"
          textAnchor="start"
          textDecoration="none"
          textRendering="auto"
          vectorEffect="none"
          visibility="visible"
          wordSpacing="normal"
          writingMode="lr-tb"
        ></path>
      </g>
    </svg>