<?xml version="1.0" encoding="UTF-8" standalone="no"?>
<svg
   xmlns:dc="http://purl.org/dc/elements/1.1/"
   xmlns:cc="http://creativecommons.org/ns#"
   xmlns:rdf="http://www.w3.org/1999/02/22-rdf-syntax-ns#"
   xmlns:svg="http://www.w3.org/2000/svg"
   xmlns="http://www.w3.org/2000/svg"
   xmlns:sodipodi="http://sodipodi.sourceforge.net/DTD/sodipodi-0.dtd"
   xmlns:inkscape="http://www.inkscape.org/namespaces/inkscape"
   width="414.99997"
   height="214.99998"
   viewBox="0 0 109.80207 56.885414"
   version="1.1"
   id="svg8"
   sodipodi:docname="logo-3-shaded.svg"
   inkscape:version="1.0.2 (e86c870879, 2021-01-15)">
  <defs
     id="defs2" />
  <sodipodi:namedview
     id="base"
     pagecolor="#ffffff"
     bordercolor="#666666"
     borderopacity="1.0"
     inkscape:pageopacity="0.0"
     inkscape:pageshadow="2"
     inkscape:zoom="0.9899495"
     inkscape:cx="194.79899"
     inkscape:cy="42.220798"
     inkscape:document-units="px"
     inkscape:current-layer="layer1"
     inkscape:document-rotation="0"
     showgrid="false"
     units="px"
     inkscape:window-width="1920"
     inkscape:window-height="1017"
     inkscape:window-x="-8"
     inkscape:window-y="-8"
     inkscape:window-maximized="1"
     inkscape:snap-grids="false"
     inkscape:snap-intersection-paths="true"
     inkscape:object-paths="true"
     inkscape:snap-smooth-nodes="true"
     inkscape:snap-bbox="true"
     inkscape:object-nodes="true"
     inkscape:snap-nodes="true"
     inkscape:snap-others="true"
     inkscape:snap-global="true"
     inkscape:bbox-paths="false"
     inkscape:bbox-nodes="false"
     inkscape:snap-midpoints="false"
     inkscape:snap-to-guides="false"
     fit-margin-top="0"
     fit-margin-left="0"
     fit-margin-right="0"
     fit-margin-bottom="0">
    <inkscape:grid
       type="xygrid"
       id="grid833"
       spacingx="2.6458333"
       spacingy="2.6458333"
       originx="-39.026039"
       originy="-152.79688" />
  </sodipodi:namedview>
  <metadata
     id="metadata5">
    <rdf:RDF>
      <cc:Work
         rdf:about="">
        <dc:format>image/svg+xml</dc:format>
        <dc:type
           rdf:resource="http://purl.org/dc/dcmitype/StillImage" />
        <dc:title></dc:title>
      </cc:Work>
    </rdf:RDF>
  </metadata>
  <g
     inkscape:label="Layer 1"
     inkscape:groupmode="layer"
     id="layer1"
     transform="translate(-39.026041,-152.79688)">
    <path
       style="fill:#45a29e;fill-opacity:1;stroke:none;stroke-width:1.32292;stroke-linecap:round;stroke-linejoin:miter;stroke-miterlimit:4;stroke-dasharray:none;stroke-opacity:1"
       d="m 39.687503,179.91667 h 13.229166 v -2.64583 c 0,-2.64584 2.645832,-5.29167 5.291666,-5.29167 h 15.875 c 2.919205,-0.0216 5.291667,2.64583 5.291667,5.29167 v 2.64583 H 92.604165 V 153.45834 H 52.916669 c -7.9375,0 -13.229167,5.29166 -13.229166,13.22916 z"
       id="path1104" />
    <path
       style="fill:#45a29e;fill-opacity:1;stroke:none;stroke-width:1.32292;stroke-linecap:round;stroke-linejoin:round;stroke-miterlimit:4;stroke-dasharray:none;stroke-opacity:1"
       d="m 95.249988,166.6875 c 3e-6,-10.58333 2.645841,-13.22916 13.229172,-13.22916 h 39.6875 v 26.45833 h -39.6875 c -10.583331,0 -13.229169,-2.64583 -13.229172,-13.22917"
       id="path1817"
       sodipodi:nodetypes="cccccc" />
    <path
       style="fill:#357d7b;fill-opacity:1;stroke:none;stroke-width:0.264583px;stroke-linecap:butt;stroke-linejoin:miter;stroke-opacity:1"
       d="m 148.16667,179.91668 -44.08727,-0.21398 -4.923484,-1.45082 -2.733356,-3.20316 -1.068422,-5.13531 0.02268,-6.74333 1.777182,-6.5384 6.03351,10.05583 h 37.04166 l 7.9375,13.22917"
       id="path1856" />
    <path
       style="fill:#5ebbb7;fill-opacity:1;stroke:none;stroke-width:0.264583px;stroke-linecap:butt;stroke-linejoin:miter;stroke-opacity:1"
       d="m 148.16666,179.91666 -7.9375,-13.22916 H 103.1875 l -6.033501,-10.05582 2.001932,-1.50856 5.271799,8.90673 37.12435,0.0118 6.61458,10.58334 v 5.29166"
       id="path1910"
       sodipodi:nodetypes="ccccccccc" />
    <path
       style="fill:none;fill-opacity:1;stroke:#265956;stroke-width:1.32292;stroke-linecap:round;stroke-linejoin:round;stroke-miterlimit:4;stroke-dasharray:none;stroke-opacity:1"
       d="m 95.249991,166.6875 c 0,-10.58333 2.645838,-13.22916 13.229169,-13.22916 h 39.6875 v 26.45833 h -39.6875 c -10.583331,0 -13.229169,-2.64583 -13.229169,-13.22917"
       id="path1819"
       sodipodi:nodetypes="cccccc" />
    <path
       style="fill:#45a29e;fill-opacity:1;stroke:none;stroke-width:1.32292;stroke-linecap:round;stroke-linejoin:round;stroke-miterlimit:4;stroke-dasharray:none;stroke-opacity:1"
       d="m 148.16665,195.79167 c 0,10.58333 -2.64584,13.22916 -13.22916,13.22916 H 95.249991 V 182.5625 h 39.687499 c 10.58332,0 13.22916,2.64583 13.22916,13.22917"
       id="path1821"
       sodipodi:nodetypes="cccccc" />
    <path
       style="fill:#357d7b;fill-opacity:1;stroke:none;stroke-width:0.264583px;stroke-linecap:butt;stroke-linejoin:miter;stroke-opacity:1"
       d="m 146.20423,205.56755 -2.43008,2.05801 -4.05621,1.13392 -44.467952,0.26135 V 182.5625 l 7.937502,13.22916 h 37.04167 z"
       id="path1860" />
    <path
       style="fill:#5ebbb7;fill-opacity:1;stroke:none;stroke-width:0.264583px;stroke-linecap:butt;stroke-linejoin:miter;stroke-opacity:1"
       d="m 95.249991,182.5625 7.937499,13.22916 h 37.04167 l 5.97507,9.77589 1.12439,-2.31036 -6.20176,-10.06411 -36.99442,-0.0473 -6.236611,-10.58333 h -2.645833"
       id="path1908"
       sodipodi:nodetypes="ccccccccc" />
    <path
       style="fill:none;fill-opacity:1;stroke:#265956;stroke-width:1.32292;stroke-linecap:round;stroke-linejoin:round;stroke-miterlimit:4;stroke-dasharray:none;stroke-opacity:1"
       d="m 148.16665,195.79167 c 0,10.58333 -2.64584,13.22916 -13.22916,13.22916 H 95.249991 V 182.5625 h 39.687499 c 10.58332,0 13.22916,2.64583 13.22916,13.22917"
       id="path1823"
       sodipodi:nodetypes="cccccc" />
    <path
       style="fill:#45a29e;fill-opacity:1;stroke:none;stroke-width:0.264583px;stroke-linecap:butt;stroke-linejoin:miter;stroke-opacity:1"
       d="m 39.6875,195.79166 c 0,10.58334 2.645833,13.22917 13.229166,13.22917 H 92.604163 V 182.5625 H 74.083332 v 5.29166 H 58.208333 c -2.645834,0 -5.291667,-2.64583 -5.291667,-5.29166 H 39.6875 Z"
       id="path1825"
       sodipodi:nodetypes="cccccccccc" />
    <path
       style="fill:#357d7b;fill-opacity:1;stroke:none;stroke-width:0.264583px;stroke-linecap:butt;stroke-linejoin:miter;stroke-opacity:1"
       d="m 39.6875,182.5625 7.937499,13.22916 h 37.041667 l 7.937497,13.22917 -44.149131,-0.22124 -4.79397,-1.40322 -2.549287,-2.71145 -1.029692,-3.25183 z"
       id="path1852" />
    <path
       style="fill:#5ebbb7;fill-opacity:1;stroke:none;stroke-width:0.264583px;stroke-linecap:butt;stroke-linejoin:miter;stroke-opacity:1"
       d="m 39.6875,182.5625 7.937499,13.22916 h 37.04167 l 7.937494,13.22917 v -3.77927 l -7.039794,-12.04848 -36.99442,-0.0473 -6.236611,-10.58333 h -2.645833"
       id="path1912"
       sodipodi:nodetypes="ccccccccc" />
    <path
       style="fill:none;fill-opacity:1;stroke:#265956;stroke-width:1.32292;stroke-linecap:butt;stroke-linejoin:miter;stroke-miterlimit:4;stroke-dasharray:none;stroke-opacity:1"
       d="m 39.687501,195.79166 c 0,10.58334 2.645833,13.22917 13.229166,13.22917 H 92.604163 V 182.5625 H 74.083332 v 5.29166 H 58.208333 c -2.645834,0 -5.291666,-2.64583 -5.291666,-5.29166 H 39.687501 Z"
       id="path1840"
       sodipodi:nodetypes="cccccccccc" />
    <path
       style="fill:#357d7b;fill-opacity:1;stroke:none;stroke-width:0.264583px;stroke-linecap:butt;stroke-linejoin:miter;stroke-opacity:1"
       d="M 92.604163,179.91667 H 79.374999 l -0.639339,-5.04991 -3.079972,-2.634 H 56.760443 l -3.389022,3.09504 -0.454752,4.58887 H 39.687502 l 0.24288,-16.07654 2.574131,-5.82975 5.120486,8.67712 h 37.041667 z"
       id="path1850" />
    <path
       style="fill:#5ebbb7;fill-opacity:1;stroke:none;stroke-width:0.264583px;stroke-linecap:butt;stroke-linejoin:miter;stroke-opacity:1"
       d="m 47.624999,166.6875 h 37.04167 l 7.937494,13.22917 2e-6,-4.34623 -7.039796,-11.48152 -36.99442,-0.0473 -4.798797,-7.36764 -1.456902,1.57899"
       id="path1916"
       sodipodi:nodetypes="cccccccc" />
    <path
       style="fill:none;fill-opacity:1;stroke:#265956;stroke-width:1.32292;stroke-linecap:round;stroke-linejoin:miter;stroke-miterlimit:4;stroke-dasharray:none;stroke-opacity:1"
       d="m 39.687503,179.91667 h 13.229166 v -2.64583 c 0,-2.64584 2.645832,-5.29167 5.291666,-5.29167 h 15.875 c 2.919205,-0.0216 5.291667,2.64583 5.291667,5.29167 v 2.64583 H 92.604165 V 153.45834 H 52.916669 c -7.9375,0 -13.229167,5.29166 -13.229166,13.22916 z"
       id="path1842" />
  </g>
</svg>
